<svg xmlns="http://www.w3.org/2000/svg" viewBox="0 0 24 24" fill="currentColor">
  <path d="M12 0C5.37 0 0 5.37 0 12c0 5.31 3.435 9.795 8.205 11.385.15.03.315-.075.315-.21 0-.105-.015-.45-.015-.855-3.795 1.125-4.245-1.5-4.245-1.5-.57-1.455-1.815-1.845-1.815-1.845-1.455-1.065.114-1.065.114-1.065-1.755.114-2.67 1.32-2.67 1.32-.945 2.505.9 2.505.9 1.455 2.505 3.825 1.785 4.77 1.365.15-1.065.555-1.785 1.005-2.205-3.03-.345-6.225-1.515-6.225-6.75 0-1.5.525-2.685 1.38-3.63-.135-.345-.6-1.725.135-3.555 0 0 1.125-.36 3.66 1.395 1.065-.285 2.205-.435 3.345-.435s2.28.15 3.345.435c2.535-1.755 3.645-1.395 3.645-1.395.735 1.83.27 3.21.135 3.555.855.945 1.38 2.13 1.38 3.63 0 5.25-3.195 6.405-6.24 6.75.495.435.945 1.275.945 2.58 0 1.86-.015 3.375-.015 3.825 0 .135.165.255.405.21C20.565 21.795 24 17.31 24 12 24 5.37 18.63 0 12 0z"/>
</svg>
